<?xml version="1.0" standalone="no"?>
<!DOCTYPE svg PUBLIC "-//W3C//DTD SVG 20010904//EN"
 "http://www.w3.org/TR/2001/REC-SVG-20010904/DTD/svg10.dtd">
<svg version="1.0" xmlns="http://www.w3.org/2000/svg"
 width="171.000000pt" height="159.000000pt" viewBox="0 0 171.000000 159.000000"
 preserveAspectRatio="xMidYMid meet">
<metadata>
Created by potrace 1.10, written by Peter Selinger 2001-2011
</metadata>
<g transform="translate(0.000000,159.000000) scale(0.100000,-0.100000)"
fill="#000000" stroke="none">
<path d="M1270 1438 l-24 -20 24 -19 c14 -10 28 -19 33 -19 4 0 -34 -60 -84
-132 -50 -73 -103 -152 -118 -175 -20 -33 -32 -42 -53 -43 -24 0 -28 4 -28 29
0 17 -6 31 -16 35 -25 10 -176 7 -216 -4 -53 -15 -88 -61 -88 -116 0 -27 -5
-46 -12 -48 -7 -2 -31 -9 -53 -15 -28 -7 -69 -37 -135 -97 -52 -47 -112 -92
-132 -101 -73 -29 -91 -107 -39 -165 l29 -33 335 -3 335 -3 36 32 c31 27 36
37 36 76 0 36 -6 50 -29 74 -16 16 -36 29 -44 29 -8 0 -23 15 -34 33 -18 32
-18 32 3 55 19 20 31 22 112 22 l91 0 39 53 c21 28 78 111 126 182 49 72 92
131 97 133 4 2 13 -7 20 -20 6 -13 13 -25 15 -27 5 -6 44 30 44 41 0 25 -134
178 -209 237 l-36 29 -25 -20z m119 -142 c19 -19 31 -41 28 -48 -3 -7 -59 -89
-125 -183 l-119 -170 -76 -3 -77 -3 0 45 0 45 47 3 46 3 116 172 c64 95 118
172 122 173 3 0 20 -15 38 -34z m-429 -356 c0 -101 -7 -121 -28 -74 -15 33
-91 66 -140 62 l-37 -3 3 40 c5 61 28 75 123 75 l79 0 0 -100z m54 -68 c3 -5
-4 -15 -16 -23 -11 -8 -24 -24 -29 -36 -11 -28 -39 -30 -39 -3 0 13 7 20 20
20 12 0 25 10 32 25 11 25 23 31 32 17z m-145 -27 c16 -14 33 -36 37 -48 4
-12 15 -34 26 -49 l19 -28 -230 0 c-179 0 -230 -3 -227 -12 1 -7 1 -10 -1 -6
-2 3 -17 3 -33 -2 -18 -5 -32 -5 -35 1 -7 11 17 22 38 17 9 -2 47 25 86 60 88
79 117 91 213 92 68 0 80 -3 107 -25z m111 -141 c0 -14 -21 -19 -33 -7 -9 9
13 34 24 27 5 -3 9 -12 9 -20z m48 -56 c15 -15 15 -51 0 -66 -17 -17 -639 -17
-656 0 -15 15 -15 51 0 66 17 17 639 17 656 0z"/>
<path d="M402 1313 c-7 -3 -23 -28 -36 -57 -14 -31 -44 -70 -76 -100 l-54 -48
54 -46 c35 -31 61 -64 76 -99 33 -73 54 -72 94 7 20 40 44 70 70 88 21 15 42
33 45 41 3 9 -16 34 -49 65 -32 30 -63 70 -75 97 -21 51 -29 59 -49 52z m22
-69 c9 -23 8 -24 -14 -24 -11 0 -20 2 -20 4 0 12 13 36 20 36 4 0 11 -7 14
-16z m39 -108 l27 -28 -35 -39 c-19 -22 -35 -44 -35 -49 0 -6 -4 -10 -10 -10
-5 0 -10 6 -10 13 0 8 -16 29 -35 49 l-35 35 35 37 c19 21 35 45 36 54 0 13 4
11 17 -8 9 -14 29 -38 45 -54z"/>
<path d="M162 926 c-11 -24 -36 -56 -56 -71 -20 -15 -36 -31 -36 -35 0 -3 19
-27 43 -51 23 -25 50 -59 60 -78 21 -39 36 -37 60 11 9 19 35 51 57 72 44 40
43 52 -2 86 -16 12 -39 42 -50 66 -25 59 -51 59 -76 0z m63 -132 c-28 -30 -29
-30 -50 2 -16 25 -16 27 5 49 l22 24 22 -26 22 -26 -21 -23z"/>
<path d="M296 444 c-4 -9 7 -34 26 -60 l32 -45 -19 -34 c-15 -29 -24 -35 -52
-35 -37 0 -53 -21 -33 -45 10 -12 92 -14 535 -15 502 0 525 0 534 18 13 25 -4
42 -41 42 -28 0 -37 13 -18 25 36 22 -31 169 -74 163 -30 -4 -31 -32 -2 -75
14 -21 26 -44 26 -51 0 -26 -32 -62 -57 -62 -21 0 -23 3 -17 22 13 41 6 78
-23 123 -19 29 -35 44 -49 45 -34 0 -36 -26 -4 -76 16 -26 26 -53 23 -62 -11
-30 -36 -52 -60 -52 -14 0 -23 -6 -23 -15 0 -16 -35 -21 -44 -6 -8 12 21 34
33 27 14 -9 31 26 31 61 0 40 -55 123 -80 123 -32 0 -35 -27 -6 -70 30 -46 32
-67 10 -98 -19 -28 -70 -32 -59 -4 19 43 16 63 -15 117 -25 44 -37 55 -53 53
-31 -4 -32 -28 -2 -72 29 -43 31 -58 9 -91 -20 -30 -71 -36 -59 -7 19 44 16
64 -16 117 -25 41 -39 55 -56 55 -32 0 -30 -34 4 -83 l27 -38 -19 -35 c-12
-23 -25 -34 -40 -34 -20 0 -22 4 -17 49 4 43 0 55 -27 95 -53 76 -108 53 -57
-24 14 -22 26 -50 26 -63 0 -29 -29 -57 -59 -57 -19 0 -20 3 -10 21 16 30 5
80 -27 129 -20 29 -33 40 -48 38 -30 -4 -31 -32 -2 -75 14 -21 26 -44 26 -51
0 -26 -32 -62 -57 -62 -21 0 -23 3 -17 22 13 41 6 78 -23 123 -29 46 -65 60
-77 29z m82 -182 c2 -7 -7 -12 -23 -12 -24 0 -26 2 -15 15 14 17 31 16 38 -3z
m126 -13 c-6 -10 -38 -12 -47 -2 -4 3 1 12 11 19 18 13 47 0 36 -17z m124 8
c3 -12 -4 -17 -22 -17 -28 0 -33 9 -14 28 15 15 32 10 36 -11z m121 9 c10 -11
8 -16 -8 -21 -29 -9 -45 3 -30 21 15 18 23 18 38 0z m121 -1 c10 -12 9 -16 -4
-21 -9 -3 -23 -3 -32 0 -13 5 -14 9 -4 21 16 19 24 19 40 0z m248 -8 c2 -11
-3 -17 -16 -17 -26 0 -34 11 -20 27 14 17 32 12 36 -10z m122 -3 c0 -16 -18
-18 -39 -5 -11 7 -10 11 5 19 21 12 34 7 34 -14z"/>
<path d="M342 161 c-8 -5 -12 -17 -10 -27 3 -18 22 -19 450 -22 405 -2 446 -1
452 14 16 43 6 44 -448 44 -237 0 -437 -4 -444 -9z"/>
</g>
</svg>
