<?xml version="1.0" standalone="no"?>
<!DOCTYPE svg PUBLIC "-//W3C//DTD SVG 20010904//EN"
 "http://www.w3.org/TR/2001/REC-SVG-20010904/DTD/svg10.dtd">
<svg version="1.0" xmlns="http://www.w3.org/2000/svg"
 width="168.000000pt" height="168.000000pt" viewBox="0 0 168.000000 168.000000"
 preserveAspectRatio="xMidYMid meet">
<metadata>
Created by potrace 1.10, written by Peter Selinger 2001-2011
</metadata>
<g transform="translate(0.000000,168.000000) scale(0.100000,-0.100000)"
fill="#000000" stroke="none">
<path d="M710 1634 c-187 -22 -404 -152 -514 -308 -71 -101 -96 -153 -137
-286 -19 -61 -19 -309 0 -370 37 -124 63 -180 122 -266 84 -121 15 -109 627
-106 500 2 533 3 530 20 -3 14 -16 18 -71 20 -67 3 -67 3 -87 42 -24 48 -26
134 -4 179 12 24 14 48 10 99 -8 92 -8 111 -1 153 5 23 3 39 -5 44 -6 4 -7 11
-2 18 5 7 32 71 61 142 29 72 64 153 77 181 13 28 24 55 24 61 0 5 8 27 19 48
23 49 12 92 -27 102 -43 10 -61 -10 -107 -122 -10 -22 -21 -49 -25 -60 -26
-62 -42 -99 -55 -129 -8 -19 -15 -37 -15 -40 0 -3 -8 -25 -19 -49 -10 -23 -23
-54 -29 -69 -6 -16 -20 -28 -33 -30 -15 -2 -30 -17 -42 -40 -17 -31 -27 -38
-61 -43 -58 -10 -116 -38 -150 -74 -17 -17 -33 -31 -37 -31 -4 0 -6 30 -6 67
2 57 -1 68 -15 71 -16 3 -18 -7 -18 -102 0 -60 -4 -107 -10 -111 -6 -4 -68 -6
-138 -6 l-127 0 -3 110 c-2 104 -4 111 -23 111 -20 0 -20 -5 -18 -110 1 -60 0
-112 -3 -116 -4 -3 -15 -3 -25 0 -16 5 -18 17 -15 118 4 177 -23 158 221 158
224 0 221 1 221 -51 0 -12 7 -19 20 -19 15 0 20 7 20 28 -1 53 -55 95 -112 86
-34 -6 -36 -4 -53 37 -13 34 -17 70 -16 156 2 114 -5 145 -38 170 -27 21 -66
15 -95 -13 -25 -26 -26 -30 -26 -150 0 -92 -4 -134 -17 -165 -15 -39 -18 -41
-51 -35 -39 6 -86 -14 -102 -43 -5 -11 -10 -85 -10 -168 l0 -148 185 3 c158 3
185 2 185 -11 0 -21 -19 -33 -63 -41 -23 -4 -50 -20 -72 -41 -28 -28 -42 -35
-74 -35 -50 0 -91 -43 -91 -96 l0 -34 -55 0 c-37 0 -55 -4 -55 -12 0 -7 -8 -1
-18 13 -9 15 -36 53 -58 85 -180 256 -176 615 8 869 72 100 188 197 288 243
112 50 189 66 325 67 177 0 267 -27 430 -129 85 -53 145 -103 145 -121 0 -6 8
-20 18 -31 31 -33 78 -116 106 -187 105 -264 58 -550 -131 -785 -45 -56 -52
-62 -120 -107 -161 -106 -325 -153 -492 -142 -147 10 -255 48 -408 143 -72 46
-107 53 -65 14 33 -31 152 -104 202 -124 139 -56 163 -61 315 -61 130 0 176 6
250 35 124 47 225 108 303 184 57 54 136 172 166 246 56 139 61 163 61 315 0
152 -5 176 -61 315 -75 187 -262 362 -454 425 -30 9 -66 22 -80 27 -26 10
-243 19 -300 12z m622 -289 c-2 -11 -12 -39 -23 -62 -10 -24 -19 -45 -19 -49
0 -3 -11 -30 -25 -60 -14 -30 -25 -57 -25 -60 0 -3 -11 -30 -25 -59 -13 -30
-27 -66 -31 -80 -3 -14 -10 -28 -15 -31 -5 -3 -9 -13 -9 -23 0 -23 -19 -41
-36 -34 -20 7 -18 25 12 90 14 32 30 67 34 78 5 11 15 36 23 55 8 19 29 69 45
110 61 149 62 151 80 148 10 -2 16 -11 14 -23z m-724 -67 c8 -8 12 -49 12
-120 l0 -108 -40 0 -40 0 0 108 c0 110 7 132 40 132 9 0 21 -5 28 -12z m32
-294 c6 -14 10 -27 10 -30 0 -2 -32 -4 -71 -4 -61 0 -70 2 -65 16 3 9 6 22 6
30 0 10 14 14 55 14 50 0 56 -2 65 -26z m478 -129 c26 -13 42 -26 42 -38 0
-23 -26 -33 -45 -17 -8 7 -29 15 -47 19 -17 4 -33 12 -35 18 -4 12 25 46 36
41 3 -2 25 -12 49 -23z m-36 -77 c34 -16 78 -84 78 -120 0 -15 -12 -63 -26
-105 -26 -77 -26 -78 -9 -133 10 -30 22 -61 28 -68 15 -18 7 -21 -45 -15 -41
5 -48 9 -57 36 -6 16 -11 56 -11 88 0 56 -1 59 -25 59 -17 0 -25 -5 -25 -17 1
-15 18 -101 31 -153 3 -10 -5 -16 -23 -18 -27 -3 -28 -2 -28 42 0 67 -31 99
-94 98 -42 -1 -51 3 -77 32 -16 19 -40 37 -54 40 -35 9 -32 36 11 104 40 61
52 72 123 114 37 21 59 27 112 27 36 1 77 -5 91 -11z m-339 -276 c38 -25 67
-58 67 -76 0 -28 12 -46 32 -46 17 0 19 5 13 30 -6 28 -4 30 21 30 15 0 35 -9
45 -22 22 -24 25 -66 7 -73 -7 -2 -79 -6 -161 -7 l-147 -3 0 26 c0 14 -11 43
-25 63 -14 20 -25 40 -25 44 0 16 76 52 110 52 19 0 47 -8 63 -18z m-197 -80
c26 -22 45 -67 34 -78 -5 -5 -43 -8 -84 -6 -72 3 -76 5 -76 26 0 32 46 76 79
76 14 0 35 -8 47 -18z"/>
<path d="M1013 584 c-9 -23 19 -37 37 -18 13 13 13 16 0 24 -21 14 -30 12 -37
-6z"/>
</g>
</svg>
