<?xml version="1.0" standalone="no"?>
<!DOCTYPE svg PUBLIC "-//W3C//DTD SVG 20010904//EN"
 "http://www.w3.org/TR/2001/REC-SVG-20010904/DTD/svg10.dtd">
<svg version="1.0" xmlns="http://www.w3.org/2000/svg"
 width="185.000000pt" height="184.000000pt" viewBox="0 0 185.000000 184.000000"
 preserveAspectRatio="xMidYMid meet">
<metadata>
Created by potrace 1.10, written by Peter Selinger 2001-2011
</metadata>
<g transform="translate(0.000000,184.000000) scale(0.100000,-0.100000)"
fill="#000000" stroke="none">
<path d="M767 1784 c-275 -46 -494 -203 -626 -447 -81 -151 -120 -373 -90
-519 18 -87 39 -171 51 -198 73 -171 174 -297 313 -389 76 -51 171 -101 192
-101 7 0 21 -4 31 -9 52 -27 115 -36 262 -36 147 0 259 15 285 37 5 4 15 8 23
8 19 0 144 64 202 103 58 39 168 149 207 207 42 61 103 178 103 196 0 8 4 22
9 32 18 34 32 99 39 182 7 90 -2 261 -17 295 -5 11 -15 40 -22 65 -7 25 -30
77 -50 117 -128 248 -356 413 -632 457 -113 19 -172 19 -280 0z m405 -61 c127
-45 229 -107 317 -193 179 -176 259 -380 248 -630 -10 -206 -80 -378 -217
-533 -76 -87 -278 -203 -400 -231 -145 -34 -208 -40 -274 -28 -35 7 -74 12
-88 12 -31 0 -137 34 -204 66 -99 47 -212 130 -294 217 -42 44 -139 244 -160
331 -25 99 -27 290 -5 385 51 214 180 397 364 515 81 52 142 79 246 107 58 16
97 18 225 16 143 -3 162 -5 242 -34z"/>
<path d="M765 1497 c-63 -39 -85 -112 -45 -155 26 -27 25 -39 -2 -48 -24 -7
-56 -38 -77 -75 -8 -13 -17 -61 -19 -106 l-5 -83 102 0 101 0 0 -69 c0 -54 4
-70 16 -75 9 -3 128 -6 265 -6 l249 0 0 75 0 75 100 0 100 0 0 75 c0 105 -33
168 -103 194 l-28 11 20 29 c35 49 25 103 -28 148 -60 52 -170 13 -171 -60 0
-36 -20 -31 -39 9 -25 51 -63 74 -121 74 -56 0 -89 -20 -123 -73 -19 -29 -37
-28 -37 2 0 10 -12 30 -26 45 -21 20 -36 26 -68 25 -22 0 -50 -6 -61 -12z
m104 -47 c31 -26 32 -87 1 -112 -59 -48 -154 19 -119 84 27 50 79 63 118 28z
m261 5 c44 -23 65 -69 51 -115 -16 -54 -44 -75 -102 -75 -67 0 -102 34 -102
99 2 83 79 129 153 91z m261 -4 c16 -13 23 -29 23 -54 0 -86 -101 -108 -142
-30 -17 31 -15 37 14 72 30 36 70 41 105 12z m-151 -106 c0 -8 5 -15 10 -15
20 0 9 -22 -31 -60 -23 -22 -46 -37 -50 -34 -14 8 -11 17 21 51 17 18 30 41
30 52 0 12 5 21 10 21 6 0 10 -7 10 -15z m-289 -29 c4 -15 19 -36 33 -47 15
-11 24 -25 21 -30 -11 -17 -24 -9 -40 21 -9 17 -20 28 -24 26 -5 -3 -16 3 -26
14 -15 16 -16 22 -5 35 18 21 32 14 41 -19z m-30 -58 c38 -17 44 -35 16 -49
-32 -16 -77 -69 -93 -109 l-14 -35 -83 2 -82 1 -3 42 c-6 74 45 150 109 163
36 8 117 0 150 -15z m472 16 c69 -12 127 -91 127 -173 l0 -32 -92 3 c-87 3
-93 4 -96 25 -4 27 -78 113 -98 113 -22 0 -16 26 9 43 37 24 88 31 150 21z
m-242 -66 c52 -15 117 -73 140 -122 12 -26 19 -65 19 -104 l0 -62 -222 2 -223
3 2 64 c5 162 137 264 284 219z"/>
<path d="M273 864 c-10 -4 -13 -59 -13 -224 0 -200 2 -219 18 -223 9 -3 60 -4
112 -4 l95 2 3 33 c3 31 5 32 47 32 24 0 47 -4 50 -10 3 -5 15 -10 26 -10 10
0 27 -4 37 -9 9 -5 44 -17 77 -26 60 -17 102 -30 140 -45 60 -23 142 -30 205
-16 81 17 108 28 142 58 14 13 35 30 45 38 21 18 109 89 136 110 11 8 24 20
31 25 6 6 34 28 61 49 69 55 105 96 105 119 0 11 -11 35 -26 54 -39 52 -90 43
-169 -30 -11 -10 -41 -35 -67 -55 -27 -20 -48 -40 -48 -44 0 -4 -7 -8 -15 -8
-8 0 -15 9 -15 20 0 12 -11 32 -25 45 -23 24 -30 25 -150 25 -123 0 -127 1
-163 28 -50 38 -96 52 -173 52 -58 0 -128 -16 -145 -33 -4 -4 -30 -7 -59 -7
-49 0 -51 1 -50 28 l0 27 -100 2 c-55 1 -106 -1 -112 -3z m175 -225 c2 -178 2
-187 -17 -192 -25 -6 -34 2 -20 19 14 17 16 81 3 93 -24 23 -54 22 -79 -3 -29
-29 -31 -48 -10 -70 18 -17 19 -32 5 -41 -22 -14 -37 15 -35 63 2 26 4 109 4
185 l1 138 73 -3 72 -3 3 -186z m367 161 c3 -5 13 -10 21 -10 9 0 36 -14 60
-32 44 -31 44 -31 160 -29 123 2 164 -9 164 -47 0 -37 -20 -42 -166 -42 -116
0 -143 -3 -148 -15 -10 -26 25 -31 174 -25 171 7 152 -3 393 195 32 27 67 11
67 -31 0 -20 -18 -39 -80 -87 -13 -10 -67 -54 -134 -107 -10 -8 -23 -19 -30
-25 -6 -5 -34 -28 -61 -50 -28 -22 -58 -47 -68 -56 -25 -23 -93 -39 -164 -39
-52 0 -173 28 -215 51 -10 5 -25 9 -33 9 -8 0 -23 4 -33 9 -39 20 -101 35
-165 40 l-69 6 -1 128 -2 127 58 0 c31 0 67 5 80 12 12 6 29 15 37 19 22 11
148 11 155 -1z m-421 -276 c8 -21 -11 -45 -30 -37 -22 8 -18 53 5 53 10 0 22
-7 25 -16z"/>
</g>
</svg>
