<?xml version="1.0" standalone="no"?>
<!DOCTYPE svg PUBLIC "-//W3C//DTD SVG 20010904//EN"
 "http://www.w3.org/TR/2001/REC-SVG-20010904/DTD/svg10.dtd">
<svg version="1.0" xmlns="http://www.w3.org/2000/svg"
 width="156.000000pt" height="156.000000pt" viewBox="0 0 156.000000 156.000000"
 preserveAspectRatio="xMidYMid meet">
<metadata>
Created by potrace 1.10, written by Peter Selinger 2001-2011
</metadata>
<g transform="translate(0.000000,156.000000) scale(0.100000,-0.100000)"
fill="#000000" stroke="none">
<path d="M740 1524 c-8 -1 -54 -8 -103 -14 -48 -7 -90 -16 -93 -21 -3 -5 -12
-9 -20 -9 -8 0 -35 -9 -60 -21 -162 -73 -301 -216 -364 -371 -12 -29 -26 -62
-31 -73 -4 -11 -13 -49 -20 -85 -53 -308 82 -609 340 -760 92 -53 152 -76 255
-95 99 -19 156 -19 247 0 123 26 198 56 279 110 174 118 277 281 319 501 15
82 14 145 -5 234 -27 131 -49 186 -115 286 -57 84 -132 155 -226 212 -111 67
-157 81 -363 106 -14 2 -32 2 -40 0z m175 -48 c133 -30 243 -89 337 -181 117
-114 181 -240 208 -414 7 -41 10 -92 6 -115 -3 -23 -8 -61 -11 -86 -15 -113
-89 -270 -168 -357 -136 -148 -384 -249 -565 -228 -315 35 -536 211 -628 500
-27 84 -27 315 -1 395 70 209 218 374 401 448 124 50 296 66 421 38z"/>
<path d="M917 1314 c-24 -13 -27 -20 -27 -62 0 -26 7 -94 15 -152 8 -58 15
-111 15 -117 0 -8 -14 -13 -40 -13 l-40 0 0 47 c0 41 -5 50 -40 84 -53 50
-112 61 -171 30 -23 -12 -50 -32 -60 -44 -14 -18 -20 -20 -30 -9 -16 15 -50
16 -84 0 -19 -9 -28 -9 -37 0 -15 15 -69 15 -89 -1 -26 -20 -40 -55 -33 -82 6
-24 4 -25 -35 -25 -32 0 -44 -5 -57 -25 -14 -21 -15 -31 -5 -51 6 -14 19 -28
29 -31 15 -4 20 -24 30 -136 7 -73 15 -181 19 -242 6 -114 19 -157 53 -175 14
-7 102 -10 259 -8 212 3 239 5 255 21 22 21 41 170 51 390 6 133 9 147 25 147
15 0 19 -10 22 -62 2 -37 -2 -76 -9 -96 -12 -28 -11 -37 4 -65 12 -23 16 -51
14 -98 -5 -133 76 -239 183 -239 85 0 151 60 186 168 13 41 7 70 -9 43 -5 -7
-26 -15 -49 -18 -34 -5 -44 -1 -66 20 -15 15 -26 38 -26 54 -1 31 -24 64 -58
82 -14 7 -22 21 -22 38 0 15 -7 34 -15 43 -9 10 -21 68 -32 158 -15 120 -20
142 -35 142 -18 0 -18 -27 3 -189 7 -58 6 -76 -3 -83 -28 -17 -25 -26 -48 162
-35 290 -40 354 -29 361 27 16 39 -3 39 -62 0 -43 4 -61 15 -65 27 -11 31 5
21 76 -10 61 -15 74 -36 85 -21 11 -30 11 -53 -1z m-163 -219 c30 -23 56 -67
56 -97 l0 -28 -115 0 -115 0 0 36 c0 54 55 104 113 104 23 0 51 -7 61 -15z
m-338 -67 c19 -43 7 -59 -39 -56 -35 3 -43 7 -45 26 -5 31 15 52 48 52 18 0
30 -7 36 -22z m129 -18 c0 -35 -1 -35 -46 -38 -46 -3 -47 -3 -44 26 3 44 13
53 53 50 35 -3 37 -5 37 -38z m377 -80 c0 -5 1 -15 2 -21 1 -8 -100 -11 -343
-11 -189 1 -346 3 -348 6 -3 3 -3 12 0 21 6 13 49 15 347 15 219 0 341 -4 342
-10z m-59 -177 c-2 -60 -9 -132 -14 -162 -5 -30 -9 -90 -9 -133 0 -70 -3 -82
-25 -103 -24 -25 -24 -25 -237 -25 -117 0 -218 4 -224 8 -26 17 -36 62 -44
210 -10 173 -18 254 -26 289 l-6 23 295 0 295 0 -5 -107z m185 -45 c19 -19 14
-45 -10 -51 -13 -3 -33 -8 -45 -12 -26 -8 -40 24 -23 55 12 23 58 28 78 8z
m61 -104 c22 -19 31 -35 31 -57 1 -52 53 -97 110 -97 l31 0 -18 -31 c-29 -49
-39 -53 -76 -36 -18 9 -46 28 -61 42 -27 25 -56 28 -56 6 0 -15 73 -71 93 -71
11 0 17 -5 14 -12 -2 -8 -21 -13 -46 -12 -34 1 -49 8 -79 37 -59 58 -91 176
-58 219 13 17 50 36 73 37 6 1 25 -11 42 -25z"/>
<path d="M697 766 c-36 -32 -77 -46 -138 -46 -50 0 -94 -32 -122 -89 -20 -40
-21 -64 -6 -93 7 -13 8 -23 1 -27 -15 -10 -52 -83 -46 -93 11 -18 31 -6 47 27
18 38 28 43 47 21 22 -28 79 -40 123 -26 60 18 102 66 132 152 15 44 21 208 8
208 -5 -1 -25 -16 -46 -34z m23 -67 c0 -35 -31 -131 -54 -165 -25 -39 -65 -64
-101 -64 -27 0 -85 28 -85 41 0 11 65 49 84 49 10 0 16 9 16 25 0 33 -12 32
-67 -5 -25 -17 -48 -29 -50 -26 -12 11 9 74 30 93 35 32 62 43 109 43 24 0 54
7 68 14 36 20 50 19 50 -5z"/>
<path d="M1043 504 c-18 -8 -4 -34 18 -34 12 0 19 7 19 20 0 19 -12 24 -37 14z"/>
<path d="M515 1282 c-34 -7 -45 -23 -45 -62 0 -85 99 -97 124 -15 12 43 -32
87 -79 77z m40 -53 c4 -13 2 -27 -7 -35 -21 -21 -53 4 -44 34 9 28 43 29 51 1z"/>
<path d="M351 1267 c-25 -31 20 -76 52 -52 27 20 19 59 -14 63 -14 2 -31 -3
-38 -11z"/>
<path d="M980 1090 c0 -16 5 -21 23 -18 12 2 22 10 22 18 0 8 -10 16 -22 18
-18 3 -23 -2 -23 -18z"/>
</g>
</svg>
