<?xml version="1.0" standalone="no"?>
<!DOCTYPE svg PUBLIC "-//W3C//DTD SVG 20010904//EN"
 "http://www.w3.org/TR/2001/REC-SVG-20010904/DTD/svg10.dtd">
<svg version="1.0" xmlns="http://www.w3.org/2000/svg"
 width="124.000000pt" height="174.000000pt" viewBox="0 0 124.000000 174.000000"
 preserveAspectRatio="xMidYMid meet">
<metadata>
Created by potrace 1.10, written by Peter Selinger 2001-2011
</metadata>
<g transform="translate(0.000000,174.000000) scale(0.100000,-0.100000)"
fill="#000000" stroke="none">
<path d="M985 1668 c-79 -173 -104 -222 -105 -205 0 9 -7 17 -15 17 -10 0 -15
-11 -15 -35 0 -32 -2 -35 -30 -35 -28 0 -30 3 -30 35 0 25 -4 35 -16 35 -12 0
-15 -8 -12 -32 3 -31 1 -33 -30 -36 -33 -3 -33 -3 -26 32 5 29 3 36 -10 36
-12 0 -16 -9 -16 -35 0 -32 -2 -35 -29 -35 -27 0 -30 3 -33 38 -2 20 -7 37
-13 37 -5 0 -11 -17 -13 -37 -3 -35 -6 -38 -33 -38 -27 0 -29 3 -29 35 0 24
-5 35 -15 35 -10 0 -15 -11 -15 -35 0 -32 -2 -35 -31 -35 -28 0 -30 2 -27 32
2 19 -2 33 -9 35 -13 5 -17 -13 -14 -49 2 -14 -5 -18 -28 -18 -27 0 -30 3 -33
35 -2 20 -7 35 -13 35 -5 0 -11 -15 -13 -35 -3 -31 -6 -35 -32 -35 -26 0 -29
4 -32 35 -2 20 -7 35 -13 35 -5 0 -11 -15 -13 -35 -3 -35 -3 -35 -53 -35 l-49
0 0 -549 0 -548 -31 -7 c-66 -13 -118 -104 -103 -182 9 -49 57 -101 104 -114
24 -6 197 -10 453 -10 351 1 417 3 427 15 16 19 31 19 24 1 -4 -11 7 -14 59
-11 35 1 72 7 83 13 35 19 67 61 68 91 1 16 4 27 9 24 4 -2 7 12 7 32 0 24 -4
34 -11 29 -7 -4 -9 0 -5 14 5 15 -2 30 -28 56 -19 20 -39 36 -45 36 -8 0 -11
89 -11 290 0 271 1 293 20 330 25 50 26 100 0 132 -16 20 -20 44 -22 124 l-3
99 -111 5 -112 5 27 50 26 50 123 0 122 0 0 -551 c0 -468 2 -553 15 -570 13
-17 14 49 15 564 l0 582 -49 0 -50 0 -3 38 c-2 20 -7 37 -13 37 -5 0 -11 -17
-13 -37 -3 -35 -6 -38 -33 -38 -27 0 -29 3 -29 36 0 24 -4 34 -12 31 -8 -2
-12 -18 -11 -35 1 -29 -1 -32 -28 -32 l-29 0 44 88 c66 133 98 203 95 207 -5
4 -80 35 -86 35 -2 0 -19 -33 -38 -72z m85 17 c0 -16 -36 -75 -46 -75 -23 0
-26 20 -8 60 15 33 20 37 36 29 10 -5 18 -12 18 -14z m-55 -96 c4 -5 0 -24 -8
-42 -74 -157 -110 -235 -118 -254 -9 -25 -16 -27 -38 -14 -12 8 -1 38 60 165
69 145 88 172 104 145z m-165 -205 c0 -3 -32 -79 -35 -82 -2 -2 -21 6 -44 17
-50 26 -61 26 -61 2 0 -11 -3 -22 -8 -25 -4 -2 -43 13 -87 35 -119 57 -185 51
-215 -21 -12 -30 -13 -30 -86 -30 l-74 0 0 -485 0 -485 -32 3 -33 3 -3 531 -2
532 122 3 c122 3 558 4 558 2z m-256 -75 c75 -36 85 -44 80 -63 -5 -20 9 -29
127 -85 125 -60 133 -63 146 -45 12 17 17 16 94 -22 88 -42 109 -63 109 -106
0 -22 -21 -83 -37 -107 -2 -2 -42 15 -90 39 -86 42 -225 109 -493 237 -74 35
-136 65 -138 67 -9 10 51 108 71 116 34 14 40 12 131 -31z m278 -68 l88 -41
-17 -34 -16 -35 -76 38 c-42 21 -93 46 -114 54 l-37 16 17 35 c15 33 17 34 42
21 14 -7 65 -31 113 -54z m168 12 l70 2 0 -77 c0 -47 -4 -78 -10 -78 -18 0
-130 60 -130 70 0 5 5 12 10 15 21 13 9 33 -29 48 -52 21 -61 37 -16 27 20 -4
67 -7 105 -7z m-673 -20 c-1 -19 5 -30 23 -40 24 -13 328 -159 598 -288 l122
-58 0 -266 0 -266 -130 0 -129 0 -3 256 c-3 253 -3 256 -28 292 -35 51 -89 79
-145 76 -53 -3 -74 12 -84 62 -9 44 -28 48 -36 7 -14 -63 -72 -118 -125 -118
-11 0 -20 -7 -20 -15 0 -8 7 -15 16 -15 9 0 31 -7 50 -16 l34 -16 0 -257 0
-256 -120 0 -120 0 0 467 0 467 48 4 c26 2 48 4 49 5 1 1 1 -10 0 -25z m246
-319 c45 -45 45 -45 23 -56 -13 -5 -32 -26 -44 -46 l-20 -35 -15 30 c-9 16
-27 37 -40 46 -21 14 -36 54 -15 41 12 -8 58 35 58 53 0 19 3 17 53 -33z m137
-23 c14 -10 35 -33 48 -51 21 -32 22 -40 22 -279 l0 -246 -142 0 -142 1 -1
237 c0 195 2 235 12 221 7 -10 13 -28 13 -41 0 -39 27 -26 34 16 7 45 60 98
107 108 39 7 37 31 -3 35 -17 2 -34 9 -36 17 -6 19 54 7 88 -18z m240 -610 c0
-5 -7 -11 -14 -14 -29 -11 -48 -67 -44 -124 4 -41 11 -60 33 -83 16 -16 27
-31 24 -32 -2 -2 -203 -1 -445 2 -424 5 -443 6 -464 25 -73 67 -63 177 21 218
30 15 83 17 462 17 244 0 427 -4 427 -9z m148 -10 c120 -62 76 -241 -58 -241
-130 0 -166 193 -46 246 42 18 60 17 104 -5z"/>
<path d="M963 759 c-8 -19 -23 -34 -42 -42 -34 -13 -42 -37 -12 -37 21 0 61
-44 61 -66 0 -8 7 -14 15 -14 8 0 15 6 15 14 0 22 40 66 61 66 29 0 23 24 -10
36 -16 7 -34 24 -42 43 -18 39 -31 39 -46 0z m42 -83 c-18 -13 -22 -13 -38 1
-16 15 -16 17 0 35 16 18 17 18 37 -2 20 -20 20 -20 1 -34z"/>
<path d="M616 504 c-4 -14 -20 -33 -36 -42 -31 -17 -40 -42 -17 -42 19 0 57
-43 57 -63 0 -9 7 -17 15 -17 8 0 15 9 15 19 0 21 44 61 66 61 26 0 14 28 -17
39 -20 7 -35 21 -42 41 -14 37 -33 39 -41 4z m37 -86 c-15 -17 -18 -17 -34 -2
-17 15 -17 18 -1 39 l17 22 18 -20 c16 -19 16 -21 0 -39z"/>
<path d="M1021 214 c-12 -15 -21 -40 -21 -56 0 -38 48 -88 85 -88 37 0 85 50
85 88 0 74 -104 113 -149 56z m107 -22 c27 -35 -1 -92 -47 -92 -24 0 -51 32
-51 61 0 52 65 73 98 31z"/>
</g>
</svg>
