<?xml version="1.0" standalone="no"?>
<!DOCTYPE svg PUBLIC "-//W3C//DTD SVG 20010904//EN"
 "http://www.w3.org/TR/2001/REC-SVG-20010904/DTD/svg10.dtd">
<svg version="1.0" xmlns="http://www.w3.org/2000/svg"
 width="175.000000pt" height="175.000000pt" viewBox="0 0 175.000000 175.000000"
 preserveAspectRatio="xMidYMid meet">
<metadata>
Created by potrace 1.10, written by Peter Selinger 2001-2011
</metadata>
<g transform="translate(0.000000,175.000000) scale(0.100000,-0.100000)"
fill="#000000" stroke="none">
<path d="M750 1704 c-73 -12 -136 -28 -144 -36 -6 -4 -18 -8 -27 -8 -29 0
-149 -67 -226 -126 -41 -32 -101 -91 -134 -133 -55 -71 -129 -204 -129 -234 0
-7 -4 -17 -8 -22 -35 -40 -51 -344 -23 -435 34 -110 42 -132 62 -177 63 -138
218 -296 358 -366 259 -129 510 -129 758 0 101 52 108 58 215 165 118 119 168
220 217 431 42 181 -27 454 -157 622 -106 136 -257 243 -402 284 -25 7 -56 17
-69 22 -25 10 -251 20 -291 13z m305 -51 c278 -70 491 -282 567 -565 31 -115
30 -278 -1 -398 -42 -160 -158 -341 -266 -416 -317 -220 -641 -229 -955 -25
-59 38 -64 45 -61 72 2 29 1 30 -28 27 -25 -2 -35 4 -57 32 -132 176 -178 310
-178 515 1 137 11 188 61 310 102 244 337 424 608 464 76 12 232 4 310 -16z"/>
<path d="M455 1498 c-65 -23 -126 -79 -159 -148 -19 -42 -21 -60 -21 -260 l0
-215 29 -50 c31 -52 82 -105 104 -105 6 0 12 -3 12 -8 0 -21 91 -32 280 -32
190 0 200 -1 200 -19 0 -11 3 -26 6 -35 5 -14 -15 -16 -183 -16 -134 0 -193
-4 -201 -12 -14 -14 -16 -104 -2 -113 6 -3 10 -35 10 -71 l0 -64 -75 0 c-41 0
-75 -4 -75 -9 0 -36 -2 -36 483 -34 524 3 525 3 543 66 5 18 7 120 4 227 -5
188 -4 196 17 235 22 38 23 51 23 258 0 200 -2 221 -21 262 -27 56 -104 127
-157 143 -51 16 -773 15 -817 0z m801 -44 c55 -23 101 -60 121 -97 38 -70 43
-101 42 -257 0 -167 -14 -253 -43 -258 -9 -2 -16 3 -16 12 0 21 -47 66 -87 82
-28 12 -33 19 -33 48 0 46 24 89 76 134 44 39 44 40 44 106 0 62 -2 67 -26 76
-14 6 -108 10 -210 10 -171 0 -185 -1 -204 -20 -25 -25 -27 -91 -4 -114 8 -9
26 -16 40 -16 35 0 30 -24 -11 -56 -28 -21 -33 -29 -24 -40 18 -22 33 -17 69
23 l34 36 14 -34 c8 -19 18 -42 23 -51 5 -10 9 -33 9 -53 0 -30 -4 -37 -34
-49 -53 -22 -126 -119 -126 -165 0 -51 1 -51 -201 -51 -211 0 -256 9 -316 63
-66 60 -78 101 -81 287 -4 159 9 270 30 270 4 0 8 6 8 13 0 21 70 81 115 99
60 24 733 26 791 2z m64 -239 c0 -25 -4 -45 -8 -45 -15 0 -69 -55 -86 -87 -15
-31 -20 -33 -69 -33 -52 0 -54 1 -70 38 -20 46 -71 95 -113 109 -21 7 -30 17
-32 36 l-3 27 190 0 191 0 0 -45z m-115 -235 c0 -23 -4 -25 -48 -28 -35 -2
-49 1 -53 12 -13 34 4 47 53 44 44 -3 48 -5 48 -28z m93 -117 c65 -65 72 -96
72 -303 0 -147 -2 -176 -17 -192 -14 -16 -34 -18 -180 -18 l-165 0 6 63 c3 34
8 86 12 115 7 64 -6 85 -50 80 l-31 -3 -3 58 c-4 74 19 145 61 191 47 50 63
55 160 56 l88 0 47 -47z m-298 -328 l0 -25 -230 0 -230 0 0 25 0 25 230 0 230
0 0 -25z m-25 -125 l0 -60 -202 0 -203 0 0 58 c0 32 2 61 4 63 2 2 94 3 203 1
l198 -3 0 -59z"/>
<path d="M505 1244 c-23 -17 -28 -95 -7 -102 28 -9 9 -22 -33 -22 -25 0 -45
-4 -45 -10 0 -5 -5 -10 -11 -10 -21 0 -38 -34 -39 -76 0 -57 33 -88 101 -90
58 -2 68 -8 51 -34 -20 -32 -15 -84 11 -108 41 -39 91 -26 126 33 16 28 27 35
50 35 16 0 33 -4 36 -10 9 -14 57 -12 75 3 8 7 21 23 28 35 15 27 0 62 -42
101 -33 31 -33 46 3 67 38 23 51 52 37 84 -6 14 -17 30 -26 37 -16 14 -70 18
-70 6 0 -5 -18 -17 -40 -27 -45 -22 -55 -17 -92 43 -38 62 -72 76 -113 45z
m82 -76 c16 -24 33 -49 40 -55 14 -15 93 -17 93 -3 0 6 7 10 15 10 8 0 15 5
15 10 0 6 14 10 30 10 23 0 30 -4 30 -20 0 -11 -4 -20 -9 -20 -4 0 -20 -11
-35 -25 -38 -36 -35 -79 9 -119 46 -42 46 -66 2 -66 -18 0 -38 5 -44 11 -22
22 -66 5 -98 -38 -18 -26 -38 -42 -51 -42 -27 -1 -50 24 -37 42 5 6 14 24 20
38 10 22 8 30 -12 53 -19 22 -31 26 -73 26 -43 0 -54 4 -67 24 -25 38 -3 66
52 66 30 0 49 6 63 20 24 24 25 39 5 66 -21 28 -19 54 5 54 12 0 30 -16 47
-42z"/>
<path d="M1284 722 c-5 -4 -9 -46 -9 -95 0 -80 2 -87 20 -87 19 0 20 7 20 90
0 86 -8 108 -31 92z"/>
<path d="M1272 468 c2 -15 10 -23 23 -23 13 0 21 8 23 23 3 18 -1 22 -23 22
-22 0 -26 -4 -23 -22z"/>
</g>
</svg>
