<?xml version="1.0" standalone="no"?>
<!DOCTYPE svg PUBLIC "-//W3C//DTD SVG 20010904//EN"
 "http://www.w3.org/TR/2001/REC-SVG-20010904/DTD/svg10.dtd">
<svg version="1.0" xmlns="http://www.w3.org/2000/svg"
 width="173.000000pt" height="173.000000pt" viewBox="0 0 173.000000 173.000000"
 preserveAspectRatio="xMidYMid meet">
<metadata>
Created by potrace 1.10, written by Peter Selinger 2001-2011
</metadata>
<g transform="translate(0.000000,173.000000) scale(0.100000,-0.100000)"
fill="#000000" stroke="none">
<path d="M1091 1576 c-14 -17 -15 -530 -1 -557 7 -12 5 -21 -5 -29 -19 -16
-40 -3 -25 16 15 17 0 62 -43 127 l-32 49 -179 0 c-138 0 -181 -3 -191 -13
-35 -39 -466 -772 -461 -785 5 -12 33 -15 170 -14 176 2 188 -1 229 -50 27
-32 67 -128 67 -160 0 -13 7 -20 19 -20 14 0 20 10 25 41 13 79 87 188 129
189 7 0 157 0 335 0 271 0 323 2 328 14 3 8 -17 50 -44 95 l-50 80 36 12 c65
20 162 87 162 111 0 5 -16 34 -35 64 -19 30 -35 58 -35 62 0 24 -86 82 -143
96 -27 6 -27 7 -11 32 37 56 14 167 -77 362 -36 77 -39 91 -39 171 0 72 -3 91
-18 104 -23 21 -95 22 -111 3z m84 -296 c0 -149 -2 -270 -5 -270 -3 0 -15 -3
-27 -6 l-23 -6 0 276 0 276 28 0 27 0 0 -270z m48 18 c3 -13 23 -71 46 -130
45 -116 53 -187 25 -226 -17 -24 -34 -29 -34 -9 0 6 -10 28 -22 47 -18 30 -21
48 -19 120 1 47 -2 117 -7 157 -7 67 -1 92 11 41z m-515 -227 l-13 -62 -63 -3
c-34 -1 -62 1 -62 5 0 4 17 35 38 68 33 53 41 60 72 63 19 2 36 1 38 -2 1 -3
-3 -34 -10 -69z m295 7 c40 -64 46 -84 21 -74 -9 3 -37 6 -63 6 l-48 0 -12 57
c-16 80 -16 79 27 75 33 -4 41 -11 75 -64z m-150 25 c4 -21 9 -51 12 -68 l7
-30 -66 0 c-36 0 -66 4 -66 9 0 6 5 36 12 68 l12 58 42 0 c40 0 42 -1 47 -37z
m-167 -150 c-3 -10 -23 -104 -45 -208 -21 -105 -48 -209 -59 -232 -19 -37 -73
-93 -90 -93 -4 0 -69 -1 -145 -3 -75 -1 -137 -1 -137 1 0 2 190 317 298 495
l35 57 74 0 c66 0 74 -2 69 -17z m200 -10 c3 -16 7 -33 9 -40 2 -6 -11 -20
-29 -31 -21 -12 -52 -51 -85 -107 l-53 -87 23 -24 c26 -28 152 -94 179 -94 10
0 22 -6 27 -12 9 -12 36 -129 30 -133 -1 -1 -50 1 -109 4 -96 5 -109 9 -133
31 -29 27 -68 98 -79 143 -5 23 21 181 59 355 5 20 11 22 80 22 73 0 75 0 81
-27z m164 19 c0 -19 -28 -40 -68 -51 -24 -7 -45 -11 -47 -9 -1 2 -6 18 -10 36
l-7 32 66 0 c36 0 66 -4 66 -8z m179 -54 c16 -34 28 -65 25 -69 -2 -4 -27 -12
-54 -18 -50 -11 -144 0 -155 18 -2 5 8 36 23 70 l27 61 52 0 52 0 30 -62z
m-229 -49 c-17 -32 -6 -45 55 -68 70 -26 119 -27 189 0 64 24 71 31 56 60 -7
11 -10 23 -7 25 9 9 116 -39 137 -61 30 -32 19 -59 -35 -85 -107 -52 -306 -61
-435 -21 -58 18 -120 55 -120 71 0 21 40 53 95 75 74 30 79 30 65 4z m-153
-142 c45 -48 216 -83 354 -73 103 7 207 37 249 73 17 14 32 24 34 22 2 -2 9
-14 15 -27 17 -32 -2 -52 -79 -86 -147 -66 -338 -73 -500 -20 -42 14 -140 70
-140 80 0 9 32 54 39 54 3 0 16 -11 28 -23z m515 -236 c21 -35 38 -64 38 -65
0 0 -83 -1 -184 -1 l-184 0 -11 54 c-6 30 -11 57 -11 61 0 4 48 5 108 2 59 -2
125 1 147 6 22 6 44 9 49 8 5 -1 27 -30 48 -65z m-698 9 c10 -22 33 -53 51
-67 l34 -27 -34 -28 c-18 -16 -42 -46 -51 -68 -10 -22 -21 -40 -24 -40 -3 0
-14 18 -24 40 -9 22 -33 52 -51 68 l-34 28 34 27 c18 14 41 45 51 67 10 22 21
40 24 40 3 0 14 -18 24 -40z"/>
<path d="M1453 1392 c-5 -4 -13 -25 -17 -47 -6 -29 -20 -51 -53 -82 -42 -40
-49 -63 -18 -63 21 0 64 -61 73 -106 10 -47 33 -52 45 -9 17 58 41 97 69 111
33 17 37 40 8 49 -29 9 -59 52 -72 102 -11 47 -18 55 -35 45z m27 -124 c0 -6
7 -19 16 -29 14 -16 14 -20 -7 -48 -13 -17 -25 -31 -28 -31 -3 1 -15 16 -27
34 l-21 32 25 32 c23 30 42 34 42 10z"/>
<path d="M347 1314 c-4 -4 -7 -21 -7 -38 -1 -46 -33 -109 -71 -139 l-34 -26
37 -34 c39 -36 68 -94 68 -137 0 -29 22 -56 38 -46 5 3 12 26 16 52 7 56 40
118 72 135 31 16 30 33 -1 53 -31 20 -55 66 -70 131 -11 47 -30 66 -48 49z
m33 -136 c0 -6 12 -26 26 -45 21 -28 23 -34 10 -39 -9 -3 -21 -21 -28 -40 -11
-31 -28 -46 -28 -25 0 4 -11 25 -25 45 l-24 36 24 36 c14 20 25 41 25 46 0 5
5 6 10 3 6 -3 10 -11 10 -17z"/>
</g>
</svg>
