<?xml version="1.0" standalone="no"?>
<!DOCTYPE svg PUBLIC "-//W3C//DTD SVG 20010904//EN"
 "http://www.w3.org/TR/2001/REC-SVG-20010904/DTD/svg10.dtd">
<svg version="1.0" xmlns="http://www.w3.org/2000/svg"
 width="191.000000pt" height="191.000000pt" viewBox="0 0 191.000000 191.000000"
 preserveAspectRatio="xMidYMid meet">
<metadata>
Created by potrace 1.10, written by Peter Selinger 2001-2011
</metadata>
<g transform="translate(0.000000,191.000000) scale(0.100000,-0.100000)"
fill="#000000" stroke="none">
<path d="M524 1613 c-13 -45 -32 -69 -67 -86 -46 -23 -47 -42 -4 -60 38 -17
56 -36 66 -74 5 -18 14 -28 26 -28 12 0 21 10 26 28 10 38 28 57 67 74 17 7
32 20 32 28 0 8 -15 21 -32 28 -39 17 -57 36 -67 74 -9 33 -38 43 -47 16z m43
-140 l-22 -22 -23 21 -22 22 21 22 22 23 22 -21 23 -22 -21 -23z"/>
<path d="M1431 1479 c-24 -4 -54 -15 -66 -23 -12 -8 -32 -12 -43 -9 -31 8 -54
-10 -118 -91 l-59 -76 -83 0 c-97 0 -136 19 -150 73 -10 39 -45 45 -50 10 -2
-13 -17 -36 -33 -53 l-31 -30 -194 0 -194 0 -32 -29 c-33 -29 -33 -30 -33
-125 0 -94 0 -95 -23 -89 -55 13 -87 6 -125 -27 -76 -66 -47 -177 55 -209 60
-19 62 -28 68 -200 l5 -156 32 -15 c31 -14 33 -18 33 -72 0 -65 13 -78 73 -78
49 0 69 27 66 87 l-3 48 287 3 287 2 0 -54 c0 -65 16 -86 66 -86 62 0 74 13
74 80 0 47 3 60 15 60 8 0 24 9 35 20 18 18 20 33 20 163 0 102 4 148 13 161
7 10 38 30 68 44 59 30 83 64 82 120 -2 80 -90 136 -170 108 -23 -7 -23 -7
-23 97 0 82 3 107 15 117 37 30 79 95 84 129 6 32 11 38 49 50 100 31 208 -13
253 -106 20 -39 24 -63 24 -133 -1 -115 -24 -170 -125 -295 -123 -152 -180
-282 -180 -408 0 -163 126 -206 282 -95 16 11 25 25 21 33 -7 21 -36 19 -66
-5 -32 -25 -90 -50 -116 -50 -61 0 -89 81 -66 193 20 99 60 174 158 298 91
116 119 170 137 267 28 140 -39 290 -150 335 -49 20 -117 27 -169 16z m-96
-89 c4 -6 -5 -26 -19 -45 -24 -32 -287 -355 -327 -402 -16 -20 -69 -33 -69
-18 0 4 59 79 131 168 73 89 157 194 188 234 53 68 82 86 96 63z m-428 -155
l-21 -23 -23 21 -22 22 21 23 22 22 22 -21 21 -20 -20 -24z m191 -4 c-11 -30
-238 -299 -263 -311 -24 -12 -31 -22 -33 -52 l-3 -38 -62 0 c-77 0 -110 -19
-167 -94 -30 -40 -49 -56 -65 -56 -38 0 -56 26 -49 68 8 52 -11 147 -41 205
-22 43 -25 62 -25 151 0 66 4 106 12 114 9 9 69 12 208 12 191 0 197 -1 217
-22 11 -13 27 -36 34 -53 18 -38 30 -37 50 6 26 53 48 67 109 72 30 2 61 4 68
5 8 1 12 -2 10 -7z m142 -148 c-4 -69 -12 -101 -34 -146 -22 -46 -29 -77 -33
-145 -6 -95 -15 -112 -65 -112 -28 0 -28 1 -28 59 0 51 -4 62 -24 78 -15 12
-25 32 -28 56 -4 34 3 46 94 159 54 68 98 126 98 131 0 4 6 7 13 7 9 0 11 -21
7 -87z m-911 -98 c46 -23 73 -94 80 -208 9 -148 -23 -137 408 -137 l354 0 24
26 c22 24 25 36 25 104 0 91 20 158 61 201 26 28 34 31 72 26 102 -14 101
-125 -1 -155 -71 -22 -76 -35 -82 -206 -3 -83 -9 -157 -13 -163 -12 -18 -867
-19 -885 -1 -8 8 -12 57 -12 152 0 167 -11 197 -80 217 -75 23 -102 88 -55
134 27 28 63 32 104 10z m661 -130 c0 -26 -1 -26 -72 -23 -67 3 -73 5 -76 26
-3 21 0 22 72 22 75 0 76 0 76 -25z m48 -122 l3 -52 -225 0 c-125 0 -226 3
-226 7 1 13 62 74 88 88 21 11 65 14 192 12 l165 -3 3 -52z m-558 -358 c0 -41
-2 -45 -25 -45 -23 0 -25 4 -25 45 0 41 2 45 25 45 23 0 25 -4 25 -45z m718
-2 c3 -40 1 -43 -22 -43 -24 0 -26 3 -26 46 0 41 2 45 23 42 18 -2 23 -10 25
-45z"/>
<path d="M644 1133 c-16 -50 -27 -64 -64 -83 -22 -11 -40 -25 -40 -30 0 -5 17
-18 38 -29 35 -18 52 -39 66 -83 9 -29 35 -21 49 15 16 37 42 62 75 71 24 8
31 46 8 46 -23 0 -68 42 -82 77 -15 36 -41 44 -50 16z m46 -93 c20 -20 20 -20
-1 -41 l-21 -21 -21 21 c-20 20 -20 21 -2 41 22 24 21 24 45 0z"/>
</g>
</svg>
